<svg width="606" height="531" viewBox="0 0 606 531" fill="none" xmlns="http://www.w3.org/2000/svg">
<path d="M251 209.5C253.209 209.5 255 211.291 255 213.5V252.5C255 254.709 253.209 256.5 251 256.5H121V209.5H251Z" fill="white" stroke="black" stroke-width="2"/>
<path d="M212.61 316.5H317C319.761 316.5 322 318.739 322 321.5V348.5C322 351.261 319.761 353.5 317 353.5H207L212.61 316.5Z" fill="white"/>
<path d="M187.341 468.5H306C308.761 468.5 311 470.739 311 473.5V510.5C311 513.261 308.761 515.5 306 515.5H181L187.341 468.5Z" fill="white"/>
<rect x="564" y="287.5" width="41" height="231" fill="#7A152B" stroke="black" stroke-width="2"/>
<rect x="456" y="253.5" width="62" height="265" fill="white" stroke="black" stroke-width="2"/>
<mask id="path-6-inside-1_237_403" fill="white">
<path d="M444 203.5C452.285 203.5 459 210.216 459 218.5V257.5C459 260.261 456.762 262.5 454 262.5H113V254.5H245C247.762 254.5 250 252.261 250 249.5V219.5C250 216.739 247.762 214.5 245 214.5H113V203.5H444Z"/>
</mask>
<path d="M444 203.5C452.285 203.5 459 210.216 459 218.5V257.5C459 260.261 456.762 262.5 454 262.5H113V254.5H245C247.762 254.5 250 252.261 250 249.5V219.5C250 216.739 247.762 214.5 245 214.5H113V203.5H444Z" fill="#CC2A41"/>
<path d="M444 203.5V201.5V201.5V203.5ZM459 218.5H461V218.5H459ZM459 257.5H461V257.5H459ZM113 262.5H111V264.5H113V262.5ZM113 254.5V252.5H111V254.5H113ZM113 214.5H111V216.5H113V214.5ZM113 203.5V201.5H111V203.5H113ZM444 203.5V205.5C451.18 205.5 457 211.32 457 218.5H459H461C461 209.111 453.389 201.5 444 201.5V203.5ZM459 218.5H457V257.5H459H461V218.5H459ZM459 257.5H457C457 259.157 455.657 260.5 454 260.5V262.5V264.5C457.866 264.5 461 261.366 461 257.5H459ZM454 262.5V260.5H113V262.5V264.5H454V262.5ZM113 262.5H115V254.5H113H111V262.5H113ZM113 254.5V256.5H245V254.5V252.5H113V254.5ZM245 254.5V256.5C248.866 256.5 252 253.366 252 249.5H250H248C248 251.157 246.657 252.5 245 252.5V254.5ZM250 249.5H252V219.5H250H248V249.5H250ZM250 219.5H252C252 215.634 248.866 212.5 245 212.5V214.5V216.5C246.657 216.5 248 217.843 248 219.5H250ZM245 214.5V212.5H113V214.5V216.5H245V214.5ZM113 214.5H115V203.5H113H111V214.5H113ZM113 203.5V205.5H444V203.5V201.5H113V203.5Z" fill="black" mask="url(#path-6-inside-1_237_403)"/>
<path d="M430 140.5C434.971 140.5 439 144.529 439 149.5V193.5C439 198.471 434.971 202.5 430 202.5H93.0002V140.5H430Z" fill="white" stroke="black" stroke-width="2"/>
<mask id="path-9-inside-2_237_403" fill="white">
<path d="M463.5 262.5C471.784 262.5 478.5 269.216 478.5 277.5V305.5C478.5 308.261 476.261 310.5 473.5 310.5H217L225.5 262.5H463.5Z"/>
</mask>
<path d="M463.5 262.5C471.784 262.5 478.5 269.216 478.5 277.5V305.5C478.5 308.261 476.261 310.5 473.5 310.5H217L225.5 262.5H463.5Z" fill="white"/>
<path d="M463.5 262.5V260.5V260.5V262.5ZM478.5 277.5H480.5V277.5L478.5 277.5ZM473.5 310.5V312.5V312.5V310.5ZM217 310.5L215.03 310.151L214.614 312.5H217V310.5ZM225.5 262.5V260.5H223.823L223.53 262.151L225.5 262.5ZM463.5 262.5V264.5C470.679 264.5 476.5 270.32 476.5 277.5L478.5 277.5L480.5 277.5C480.5 268.111 472.889 260.5 463.5 260.5V262.5ZM478.5 277.5H476.5V305.5H478.5H480.5V277.5H478.5ZM478.5 305.5H476.5C476.5 307.157 475.157 308.5 473.5 308.5V310.5V312.5C477.366 312.5 480.5 309.366 480.5 305.5H478.5ZM473.5 310.5V308.5H217V310.5V312.5H473.5V310.5ZM217 310.5L218.969 310.849L227.469 262.849L225.5 262.5L223.53 262.151L215.03 310.151L217 310.5ZM225.5 262.5V264.5H463.5V262.5V260.5H225.5V262.5Z" fill="black" mask="url(#path-9-inside-2_237_403)"/>
<path d="M485.941 359.563C493.696 359.531 500 365.808 500 373.562V414.5C500 416.709 498.209 418.5 496 418.5H204.564L208.185 360.725L485.941 359.563Z" fill="white" stroke="black" stroke-width="2"/>
<mask id="path-12-inside-3_237_403" fill="white">
<path d="M300 262.5C308.284 262.5 315 269.216 315 277.5V305.5C315 308.261 312.761 310.5 310 310.5H217L217.959 303.924H301.252C304.013 303.924 306.251 301.685 306.252 298.924V276.381C306.252 273.62 304.013 271.381 301.252 271.381H222.705L224 262.5H300Z"/>
</mask>
<path d="M300 262.5C308.284 262.5 315 269.216 315 277.5V305.5C315 308.261 312.761 310.5 310 310.5H217L217.959 303.924H301.252C304.013 303.924 306.251 301.685 306.252 298.924V276.381C306.252 273.62 304.013 271.381 301.252 271.381H222.705L224 262.5H300Z" fill="white"/>
<path d="M315 305.5L317 305.5V305.5H315ZM217 310.5L215.021 310.211L214.687 312.5H217V310.5ZM217.959 303.924V301.924H216.229L215.98 303.635L217.959 303.924ZM301.252 303.924V305.924H301.252L301.252 303.924ZM306.252 298.924L308.252 298.924V298.924H306.252ZM306.252 276.381H308.252V276.381L306.252 276.381ZM301.252 271.381L301.252 269.381H301.252V271.381ZM222.705 271.381L220.726 271.092L220.392 273.381H222.705V271.381ZM224 262.5V260.5H222.27L222.021 262.211L224 262.5ZM300 262.5V264.5C307.179 264.5 313 270.32 313 277.5H315H317C317 268.111 309.389 260.5 300 260.5V262.5ZM315 277.5H313V305.5H315H317V277.5H315ZM315 305.5L313 305.5C313 307.157 311.656 308.5 310 308.5V310.5V312.5C313.866 312.5 316.999 309.366 317 305.5L315 305.5ZM310 310.5V308.5H217V310.5V312.5H310V310.5ZM217 310.5L218.979 310.789L219.938 304.212L217.959 303.924L215.98 303.635L215.021 310.211L217 310.5ZM217.959 303.924V305.924H301.252V303.924V301.924H217.959V303.924ZM301.252 303.924L301.252 305.924C305.118 305.924 308.251 302.789 308.252 298.924L306.252 298.924L304.252 298.924C304.252 300.581 302.908 301.924 301.252 301.924L301.252 303.924ZM306.252 298.924H308.252V276.381H306.252H304.252V298.924H306.252ZM306.252 276.381L308.252 276.381C308.252 272.515 305.118 269.381 301.252 269.381L301.252 271.381L301.252 273.381C302.908 273.381 304.252 274.724 304.252 276.381L306.252 276.381ZM301.252 271.381V269.381H222.705V271.381V273.381H301.252V271.381ZM222.705 271.381L224.684 271.669L225.979 262.789L224 262.5L222.021 262.211L220.726 271.092L222.705 271.381ZM224 262.5V264.5H300V262.5V260.5H224V262.5Z" fill="black" mask="url(#path-12-inside-3_237_403)"/>
<mask id="path-14-inside-4_237_403" fill="white">
<path d="M193 139.334C201.284 139.334 208 146.05 208 154.334V200.5C208 203.261 205.762 205.5 203 205.5H82.5002V196.436H191.217C193.978 196.435 196.217 194.197 196.217 191.436V156.577C196.217 153.816 193.978 151.577 191.217 151.577H82.5002V139.334H193Z"/>
</mask>
<path d="M193 139.334C201.284 139.334 208 146.05 208 154.334V200.5C208 203.261 205.762 205.5 203 205.5H82.5002V196.436H191.217C193.978 196.435 196.217 194.197 196.217 191.436V156.577C196.217 153.816 193.978 151.577 191.217 151.577H82.5002V139.334H193Z" fill="white"/>
<path d="M193 139.334V137.334V137.334V139.334ZM208 154.334H210V154.334L208 154.334ZM203 205.5V207.5V207.5V205.5ZM82.5002 205.5H80.5002V207.5H82.5002V205.5ZM82.5002 196.436V194.436H80.5002V196.436H82.5002ZM191.217 196.436V198.436H191.217L191.217 196.436ZM191.217 151.577L191.217 149.577H191.217V151.577ZM82.5002 151.577H80.5002V153.577H82.5002V151.577ZM82.5002 139.334V137.334H80.5002V139.334H82.5002ZM193 139.334V141.334C200.18 141.334 206 147.154 206 154.334L208 154.334L210 154.334C210 144.945 202.389 137.334 193 137.334V139.334ZM208 154.334H206V200.5H208H210V154.334H208ZM208 200.5H206C206 202.157 204.657 203.5 203 203.5V205.5V207.5C206.866 207.5 210 204.366 210 200.5H208ZM203 205.5V203.5H82.5002V205.5V207.5H203V205.5ZM82.5002 205.5H84.5002V196.436H82.5002H80.5002V205.5H82.5002ZM82.5002 196.436V198.436H191.217V196.436V194.436H82.5002V196.436ZM191.217 196.436L191.217 198.436C195.083 198.435 198.217 195.302 198.217 191.436H196.217H194.217C194.217 193.092 192.874 194.436 191.217 194.436L191.217 196.436ZM196.217 191.436H198.217V156.577H196.217H194.217V191.436H196.217ZM196.217 156.577H198.217C198.217 152.711 195.083 149.577 191.217 149.577L191.217 151.577L191.217 153.577C192.874 153.577 194.217 154.92 194.217 156.577H196.217ZM191.217 151.577V149.577H82.5002V151.577V153.577H191.217V151.577ZM82.5002 151.577H84.5002V139.334H82.5002H80.5002V151.577H82.5002ZM82.5002 139.334V141.334H193V139.334V137.334H82.5002V139.334Z" fill="black" mask="url(#path-14-inside-4_237_403)"/>
<mask id="path-16-inside-5_237_403" fill="white">
<path fill-rule="evenodd" clip-rule="evenodd" d="M287.818 359.718C296.173 359.617 303 366.362 303 374.717V414.5C303 417.261 300.761 419.5 298 419.5H197.5L198.451 409.53H288.905C291.666 409.53 293.905 407.291 293.905 404.53V375.092C293.905 372.331 291.666 370.092 288.905 370.092H202.216L203.108 360.743L287.818 359.718Z"/>
</mask>
<path fill-rule="evenodd" clip-rule="evenodd" d="M287.818 359.718C296.173 359.617 303 366.362 303 374.717V414.5C303 417.261 300.761 419.5 298 419.5H197.5L198.451 409.53H288.905C291.666 409.53 293.905 407.291 293.905 404.53V375.092C293.905 372.331 291.666 370.092 288.905 370.092H202.216L203.108 360.743L287.818 359.718Z" fill="white"/>
<path d="M287.818 359.718L287.794 357.719V357.719L287.818 359.718ZM303 374.717H305V374.717L303 374.717ZM298 419.5V421.5V421.5V419.5ZM197.5 419.5L195.509 419.31L195.3 421.5H197.5V419.5ZM198.451 409.53V407.53H196.633L196.46 409.34L198.451 409.53ZM293.905 404.53L295.905 404.53V404.53H293.905ZM288.905 370.092V368.092V368.092V370.092ZM202.216 370.092L200.225 369.902L200.016 372.092H202.216V370.092ZM203.108 360.743L203.084 358.743L201.288 358.765L201.117 360.553L203.108 360.743ZM287.818 359.718L287.842 361.718C295.083 361.631 301 367.476 301 374.717L303 374.717L305 374.717C305 365.248 297.262 357.604 287.794 357.719L287.818 359.718ZM303 374.717H301V414.5H303H305V374.717H303ZM303 414.5H301C301 416.157 299.657 417.5 298 417.5V419.5V421.5C301.866 421.5 305 418.366 305 414.5H303ZM298 419.5V417.5H197.5V419.5V421.5H298V419.5ZM197.5 419.5L199.491 419.69L200.442 409.72L198.451 409.53L196.46 409.34L195.509 419.31L197.5 419.5ZM198.451 409.53V411.53H288.905V409.53V407.53H198.451V409.53ZM288.905 409.53V411.53C292.771 411.53 295.905 408.396 295.905 404.53L293.905 404.53L291.905 404.53C291.905 406.187 290.562 407.53 288.905 407.53V409.53ZM293.905 404.53H295.905V375.092H293.905H291.905V404.53H293.905ZM293.905 375.092H295.905C295.905 371.226 292.771 368.092 288.905 368.092V370.092V372.092C290.562 372.092 291.905 373.436 291.905 375.092H293.905ZM288.905 370.092V368.092H202.216V370.092V372.092H288.905V370.092ZM202.216 370.092L204.207 370.282L205.099 360.933L203.108 360.743L201.117 360.553L200.225 369.902L202.216 370.092ZM203.108 360.743L203.132 362.743L287.842 361.718L287.818 359.718L287.794 357.719L203.084 358.743L203.108 360.743Z" fill="black" mask="url(#path-16-inside-5_237_403)"/>
<path d="M460.95 418.554C468.702 418.526 475 424.802 475 432.554V459.5C475 461.709 473.209 463.5 471 463.5H196.861L201.564 419.476L460.95 418.554Z" fill="white" stroke="black" stroke-width="2"/>
<mask id="path-19-inside-6_237_403" fill="white">
<path fill-rule="evenodd" clip-rule="evenodd" d="M295.872 418.452C304.206 418.382 311 425.118 311 433.452V459.499C311 462.261 308.761 464.499 306 464.499H192L192.812 458.151H295.692C298.454 458.151 300.692 455.912 300.692 453.151V431.735C300.692 428.973 298.454 426.735 295.692 426.735H196.835L197.789 419.286L295.872 418.452Z"/>
</mask>
<path fill-rule="evenodd" clip-rule="evenodd" d="M295.872 418.452C304.206 418.382 311 425.118 311 433.452V459.499C311 462.261 308.761 464.499 306 464.499H192L192.812 458.151H295.692C298.454 458.151 300.692 455.912 300.692 453.151V431.735C300.692 428.973 298.454 426.735 295.692 426.735H196.835L197.789 419.286L295.872 418.452Z" fill="white"/>
<path d="M295.872 418.452L295.855 416.453H295.855L295.872 418.452ZM306 464.499V466.499H306L306 464.499ZM192 464.499L190.016 464.245L189.727 466.499H192V464.499ZM192.812 458.151V456.151H191.052L190.828 457.897L192.812 458.151ZM300.692 453.151L302.692 453.151V453.151H300.692ZM196.835 426.735L194.851 426.481L194.562 428.735H196.835V426.735ZM197.789 419.286L197.772 417.287L196.027 417.301L195.805 419.032L197.789 419.286ZM295.872 418.452L295.889 420.452C303.111 420.391 309 426.23 309 433.452H311H313C313 424.007 305.3 416.372 295.855 416.453L295.872 418.452ZM311 433.452H309V459.499H311H313V433.452H311ZM311 459.499H309C309 461.156 307.657 462.499 306 462.499L306 464.499L306 466.499C309.866 466.499 313 463.365 313 459.499H311ZM306 464.499V462.499H192V464.499V466.499H306V464.499ZM192 464.499L193.984 464.753L194.796 458.405L192.812 458.151L190.828 457.897L190.016 464.245L192 464.499ZM192.812 458.151V460.151H295.692V458.151V456.151H192.812V458.151ZM295.692 458.151V460.151C299.558 460.151 302.692 457.017 302.692 453.151L300.692 453.151L298.692 453.151C298.692 454.808 297.349 456.151 295.692 456.151V458.151ZM300.692 453.151H302.692V431.735H300.692H298.692V453.151H300.692ZM300.692 431.735H302.692C302.692 427.869 299.558 424.735 295.692 424.735V426.735V428.735C297.349 428.735 298.692 430.078 298.692 431.735H300.692ZM295.692 426.735V424.735H196.835V426.735V428.735H295.692V426.735ZM196.835 426.735L198.819 426.989L199.773 419.541L197.789 419.286L195.805 419.032L194.851 426.481L196.835 426.735ZM197.789 419.286L197.806 421.286L295.889 420.452L295.872 418.452L295.855 416.453L197.772 417.287L197.789 419.286Z" fill="black" mask="url(#path-19-inside-6_237_403)"/>
<mask id="path-21-inside-7_237_403" fill="white">
<path d="M470.5 310.444C478.784 310.444 485.5 317.16 485.5 325.444V354.5C485.5 357.261 483.261 359.5 480.5 359.5H211.5L212.277 351.876H307.743C310.504 351.876 312.743 349.637 312.743 346.876V324.334C312.743 321.573 310.504 319.334 307.743 319.334H215.594L216.5 310.444H470.5Z"/>
</mask>
<path d="M470.5 310.444C478.784 310.444 485.5 317.16 485.5 325.444V354.5C485.5 357.261 483.261 359.5 480.5 359.5H211.5L212.277 351.876H307.743C310.504 351.876 312.743 349.637 312.743 346.876V324.334C312.743 321.573 310.504 319.334 307.743 319.334H215.594L216.5 310.444H470.5Z" fill="#7A152B"/>
<path d="M211.5 359.5L209.51 359.297L209.285 361.5H211.5V359.5ZM212.277 351.876V349.876H210.471L210.287 351.673L212.277 351.876ZM307.743 351.876V353.876H307.743L307.743 351.876ZM312.743 324.334H314.743V324.334L312.743 324.334ZM307.743 319.334L307.743 317.334H307.743V319.334ZM215.594 319.334L213.604 319.131L213.379 321.334H215.594V319.334ZM216.5 310.444V308.444H214.693L214.51 310.241L216.5 310.444ZM470.5 310.444V312.444C477.679 312.444 483.5 318.265 483.5 325.444H485.5H487.5C487.5 316.055 479.889 308.444 470.5 308.444V310.444ZM485.5 325.444H483.5V354.5H485.5H487.5V325.444H485.5ZM485.5 354.5H483.5C483.5 356.157 482.157 357.5 480.5 357.5V359.5V361.5C484.366 361.5 487.5 358.366 487.5 354.5H485.5ZM480.5 359.5V357.5H211.5V359.5V361.5H480.5V359.5ZM211.5 359.5L213.489 359.703L214.267 352.079L212.277 351.876L210.287 351.673L209.51 359.297L211.5 359.5ZM212.277 351.876V353.876H307.743V351.876V349.876H212.277V351.876ZM307.743 351.876L307.743 353.876C311.609 353.876 314.743 350.742 314.743 346.876H312.743H310.743C310.743 348.533 309.4 349.876 307.743 349.876L307.743 351.876ZM312.743 346.876H314.743V324.334H312.743H310.743V346.876H312.743ZM312.743 324.334L314.743 324.334C314.743 320.468 311.609 317.334 307.743 317.334L307.743 319.334L307.743 321.334C309.4 321.334 310.743 322.677 310.743 324.334L312.743 324.334ZM307.743 319.334V317.334H215.594V319.334V321.334H307.743V319.334ZM215.594 319.334L217.583 319.537L218.489 310.647L216.5 310.444L214.51 310.241L213.604 319.131L215.594 319.334ZM216.5 310.444V312.444H470.5V310.444V308.444H216.5V310.444Z" fill="black" mask="url(#path-21-inside-7_237_403)"/>
<mask id="path-23-inside-8_237_403" fill="white">
<path fill-rule="evenodd" clip-rule="evenodd" d="M479.436 463.5C487.743 463.468 494.495 470.193 494.495 478.5V514.442C494.495 517.203 492.256 519.442 489.495 519.442L189 519.441L189.75 511.77H285.334C288.095 511.77 290.334 509.531 290.334 506.77V478.761C290.334 476 288.095 473.761 285.334 473.761H193.465L194.359 464.609L479.436 463.5Z"/>
</mask>
<path fill-rule="evenodd" clip-rule="evenodd" d="M479.436 463.5C487.743 463.468 494.495 470.193 494.495 478.5V514.442C494.495 517.203 492.256 519.442 489.495 519.442L189 519.441L189.75 511.77H285.334C288.095 511.77 290.334 509.531 290.334 506.77V478.761C290.334 476 288.095 473.761 285.334 473.761H193.465L194.359 464.609L479.436 463.5Z" fill="#CC2A41"/>
<path d="M479.436 463.5L479.428 461.5V461.5L479.436 463.5ZM494.495 514.442L496.495 514.442V514.442H494.495ZM489.495 519.442V521.442V521.442V519.442ZM189 519.441L187.009 519.246L186.795 521.441L189 521.441L189 519.441ZM189.75 511.77V509.77H187.936L187.759 511.575L189.75 511.77ZM285.334 511.77V513.77H285.334L285.334 511.77ZM285.334 473.761L285.334 471.761H285.334V473.761ZM193.465 473.761L191.474 473.566L191.26 475.761H193.465V473.761ZM194.359 464.609L194.351 462.609L192.544 462.616L192.369 464.414L194.359 464.609ZM479.436 463.5L479.444 465.5C486.643 465.472 492.495 471.301 492.495 478.5H494.495H496.495C496.495 469.085 488.843 461.464 479.428 461.5L479.436 463.5ZM494.495 478.5H492.495V514.442H494.495H496.495V478.5H494.495ZM494.495 514.442L492.495 514.441C492.495 516.098 491.152 517.442 489.495 517.442V519.442V521.442C493.361 521.442 496.495 518.307 496.495 514.442L494.495 514.442ZM489.495 519.442V517.442L189 517.441L189 519.441L189 521.441L489.495 521.442V519.442ZM189 519.441L190.99 519.635L191.74 511.964L189.75 511.77L187.759 511.575L187.009 519.246L189 519.441ZM189.75 511.77V513.77H285.334V511.77V509.77H189.75V511.77ZM285.334 511.77L285.334 513.77C289.2 513.769 292.334 510.636 292.334 506.77H290.334H288.334C288.334 508.426 286.991 509.77 285.334 509.77L285.334 511.77ZM290.334 506.77H292.334V478.761H290.334H288.334V506.77H290.334ZM290.334 478.761H292.334C292.334 474.895 289.2 471.761 285.334 471.761L285.334 473.761L285.334 475.761C286.991 475.761 288.334 477.104 288.334 478.761H290.334ZM285.334 473.761V471.761H193.465V473.761V475.761H285.334V473.761ZM193.465 473.761L195.455 473.955L196.35 464.803L194.359 464.609L192.369 464.414L191.474 473.566L193.465 473.761ZM194.359 464.609L194.367 466.608L479.444 465.5L479.436 463.5L479.428 461.5L194.351 462.609L194.359 464.609Z" fill="black" mask="url(#path-23-inside-8_237_403)"/>
<path d="M188.379 263.5L183.008 310.374L156.618 519H130.643L158.491 310.633L158.643 309.5H93.1213L98.3918 263.5H188.379Z" fill="white" stroke="black" stroke-width="2"/>
<path d="M192.123 518.636L158.127 518.637L188.787 263.5L225.859 263.5L192.123 518.636Z" fill="white" stroke="black" stroke-width="2"/>
<path d="M129.786 519.167L95.8763 518.43L120.887 310.304L157.859 311.107L129.786 519.167Z" fill="#7A152B" stroke="black" stroke-width="2"/>
<path d="M94.1198 517.999L1.13131 517.999L26.8829 310.501L120.863 310.5L94.1198 517.999Z" fill="#7A152B" stroke="black" stroke-width="2"/>
<rect x="520" y="253.5" width="44" height="265" fill="white" stroke="black" stroke-width="2"/>
<path d="M301.999 40V36L303.499 34.5V32L301.999 30.5V12L303.499 9.5L305.499 7.5L307 6L308.5 4.5L310.5 2.5L313 0.5L316 0H328.499L332 1L335.499 3L337.499 5L338.999 6.5L340.999 8.5L342.499 10L344.499 12V19H328.499L326.499 21L324.999 22.5L322.999 24.5V26H317.999L317.5 24L315 21L312.499 22.5L310.999 25.5L312.499 28L314.499 29.5L315.5 31.5V32.5L314.499 33L312.499 35L305.499 36.5L303.499 38.5L301.999 40Z" fill="black"/>
<path d="M344 19V28.9121L342.04 34.3027L340.551 37.7773L338.58 41.2256L337.142 43.1426L335.2 44.5996L335.142 44.6426L335.099 44.7002L333.75 46.5H321V52.333L319.599 54.2002L318.183 56.0879L315.905 57H309.134L305.773 55.0801L303.856 53.6426L302.5 51.833V38.167L303.797 36.4365L309.132 34.9824L309.144 34.9785L309.158 34.9746L312.159 33.9746L312.222 33.9531L314.001 32.7676V30.5H312.791L311 27.3662V23.1758L312.74 21H315.833L317.616 22.3369L319.565 25.748L319.71 26H322.268L322.417 25.7773L323.406 24.291L324.9 22.2998L324.961 22.2188L324.986 22.1211L325.464 20.2041L326.267 19H344Z" fill="white" stroke="black"/>
<path d="M302.499 38.5V51.167L304.099 53.2998L304.142 53.3574L304.199 53.4004L306.199 54.9004L306.224 54.9189L309.751 56.9346L309.866 57H315.138L315.256 56.9287L317.757 55.4287L317.81 55.3975L317.854 55.3535L319.353 53.8535L319.378 53.8281L319.399 53.7998L320.999 51.667V46.5H331.759L333.608 48.8125L335.062 50.751L336.5 54.1035V60.0205L336.502 60.041L336.987 65.8848L335.064 69.252L335.033 69.3066L335.017 69.3682L333.533 74.8057L331.615 78.1621L329.699 79.5996L329.582 79.6875L329.531 79.8242L328.06 83.748L326.504 85.6924L323.243 81.5H321.209L321.065 81.752L319.083 85.2197L317.642 87.1426L315.699 88.5996L315.642 88.6426L315.599 88.7002L314.133 90.6533L311.451 92.8887L309.377 91.6436L304.94 83.2656L304.743 82.8916L304.341 83.0254L287.841 88.5254L287.28 88.7129L287.558 89.2344L295.999 105.124V110H281.066L275.692 108.534L272.192 106.534L272.131 106.518L266.631 105.018H266.63L259.658 103.025L254.685 101.036L254.643 101.019L254.597 101.01L247.194 99.5293L244.499 97.7324V94.6035L245.941 91.2363L247.915 88.2773L247.922 88.2676L247.928 88.2568L249.428 85.7568L249.434 85.748L253.434 78.748L253.447 78.7236L253.459 78.6973L254.959 75.1973L256.447 71.7227L258.429 68.2568L259.929 65.7568L259.957 65.71L259.974 65.6582L260.949 62.7295L263.406 59.291L263.421 59.2695L263.434 59.248L265.418 55.7734L266.855 53.8564L268.799 52.4004L268.827 52.3789L272.378 48.8281L272.399 48.7998L273.855 46.8564L275.772 45.4189L279.222 43.4482L282.693 41.9609L288.134 39.9824L295.054 38.5H302.499Z" fill="white" stroke="black"/>
<path d="M287.333 87.6279L286.796 87.8428L279.619 67.749L279.729 67.6934L287.333 87.6279ZM304.5 81.1035V81.3955L304.458 81.2998L296.147 62.2344L296.252 62.1826L304.5 81.1035Z" fill="white" stroke="black"/>
<path d="M356.292 77L357.999 78.707V85H357.5V89.5H360.706L362.206 88H370.792L371.999 89.207V97.793L370.646 99.1465L368.717 101.074L363.823 103.032L359.888 104.508L337.455 106.502L337.447 106.503L322.976 108H298.617L295.75 106.566L294.4 105.666L292.958 102.303L290.964 97.3145L290.959 97.3027L289.453 93.7891L289.446 93.7764L287.499 89.8818V88.3418L304.756 81.6299L306.553 85.2236L309.552 91.2236L309.617 91.3535L309.742 91.4287L312.242 92.9287L312.376 93.0088L312.531 92.999L328.021 91.999L328.021 92L339.521 91.5L339.757 91.4893L339.899 91.2998L341.399 89.2998L341.426 89.2637L341.446 89.2236L342.423 87.2715L344.391 84.8125L344.416 84.7773L346.367 81.8486L348.299 80.4004L348.327 80.3789L351.706 77H356.292Z" fill="white" stroke="black"/>
<path d="M371.739 59.5L358.17 91H356.118L357.489 84.6045L357.49 84.5977L357.989 82.0977L358.028 81.9033L357.923 81.7354L355.424 77.7354L355.277 77.5H352.333L352.2 77.5996L350.199 79.0996L350.171 79.1211L348.672 80.6201L346.699 82.0996L346.621 82.1592L346.57 82.2432L345.09 84.7109L343.109 87.1875L343.089 87.2139L343.071 87.2422L341.57 89.7422L341.56 89.7588L341.552 89.7764L340.69 91.5H329.485L329.471 91.501L321.382 91.9502L325.428 84.7568L326.928 82.2568L326.938 82.2412L326.947 82.2236L329.946 76.2236L329.954 76.208L335.454 64.208L335.469 64.1768L335.478 64.1436L336.871 59.5H371.739Z" fill="#CC2A41" stroke="black"/>
<path d="M354.464 51L361.391 51.9893L367.84 53.9736L373.25 55.9404L375.5 57.7402V59.4932L337.457 59.0049L337.014 54.1455L338.342 52.377L340.637 51H354.464Z" fill="white" stroke="black"/>
<path d="M407.332 51L409.117 52.3389L410.999 55.6318V59.5H376V57.79L379.226 55.9453L383.696 53.959L383.697 53.96L387.145 52.4814L395.543 51H407.332Z" fill="white" stroke="black"/>
<path d="M380.197 59.5L366.189 88H362.793L362.646 88.1465L361.203 89.5879L358.382 91H356.302L371.81 59.5H380.197Z" fill="#7A152B" stroke="black"/>
<path d="M371.999 89.6494L371.67 89.5303L366.697 87.7217L380.808 59.5H412.146L398.563 83.7559L398.557 83.7656L398.552 83.7764L389.552 101.776L384.692 111.494L355.232 111.012L357.871 104.417L363.131 102.982L363.158 102.975L363.184 102.964L368.184 100.964L368.28 100.926L371.999 97.207V89.6494Z" fill="#CC2A41" stroke="black"/>
<path d="M354.726 110.966L346.767 110.082L349.322 104.972L358.594 104.088L354.726 110.966Z" fill="#7A152B" stroke="black"/>
<path d="M346.177 109.5H314.999V108H322.024L322.051 107.997L336.551 106.497L336.559 106.496L348.177 105.102L346.177 109.5Z" fill="#CC2A41" stroke="black"/>
<path d="M400.716 83.5L401.999 85.6377V96.3818L398.588 103.204L397.292 104.5H387.666L385.878 103.158L384.499 100.86V87.1182L386.308 83.5H400.716Z" fill="white" stroke="black"/>
<path d="M247.145 99.8535L247.253 99.9609L247.401 99.9902L254.857 101.481L259.813 103.464L259.837 103.474L259.862 103.48L266.862 105.48L266.868 105.482L272.303 106.965L275.751 108.935L275.806 108.966L275.868 108.982L281.368 110.482L281.435 110.501L281.507 110.5L314.998 110L345.955 110.499L354.689 111.955L356.071 114.257L356.077 114.268L356.084 114.277L358.095 117.295L358.109 117.312L360.09 119.789L361.558 122.236L362.999 125.117V177.834L361.657 179.622L359.361 181H338.706L337.353 179.646L335.485 177.779L333.999 154.982V141.5H320.499V177.793L319.146 179.146L317.292 181H296.706L294.9 179.194L292.999 175.866V142H290.999V140H245.206L243.419 138.212L241.457 133.797L239.959 130.303L237.991 125.384L237.504 119.533L238.986 112.615L240.478 107.644H240.479L240.482 107.632L241.971 102.164L244.174 96.8809L247.145 99.8535Z" fill="black" stroke="black"/>
<path d="M315.499 180.5V188.207L319.237 191.945L319.361 191.98L326.361 193.98L326.387 193.988L326.413 193.992L337.525 195.924L337.968 203H291.999V197.093L294.466 190.679L296.96 184.691L298.824 180.5H315.499Z" fill="white" stroke="black"/>
<path d="M359.594 180.5L361.51 189.603L361.575 189.914L361.885 189.986L370.385 191.986L370.4 191.99L370.417 191.993L379.278 193.47L382.555 196.278L384.349 203H338.465L337.999 196.479V193.59L339.467 189.676L339.48 189.64L339.488 189.603L341.404 180.5H359.594Z" fill="white" stroke="black"/>
</svg>
