<svg width="138" height="131" viewBox="0 0 138 131" fill="none" xmlns="http://www.w3.org/2000/svg">
<path d="M0 23.1291C0 22.1143 0.652896 21.2147 1.61769 20.9002L63.8554 0.60954C65.0725 0.212764 66.382 0.199155 67.607 0.570552L134.738 20.923C135.726 21.2227 136.402 22.1338 136.402 23.1665V38.8818C136.402 40.0327 135.469 40.9656 134.318 40.9656H2.34437C1.04962 40.9656 0 39.916 0 38.6213V23.1291Z" fill="#FF0000"/>
<rect x="68.0282" y="13.0549" width="14.7543" height="14.7982" rx="1.04194" transform="rotate(44.6843 68.0282 13.0549)" fill="#FF0000"/>
<rect x="57.622" y="52.67" width="23.4089" height="53.1203" rx="2.60484" fill="#FF0000"/>
<rect x="20.7386" y="51.8464" width="23.4089" height="53.1203" rx="2.60484" fill="#FF0000"/>
<rect x="94.5359" y="52.67" width="23.4089" height="53.1203" rx="2.60484" fill="#FF0000"/>
<rect x="0.900391" y="131" width="16.2062" height="136.852" rx="3.38629" transform="rotate(-90 0.900391 131)" fill="#FF0000"/>
</svg>
