<svg width="302" height="254" viewBox="0 0 302 254" fill="none" xmlns="http://www.w3.org/2000/svg">
<path d="M167.05 108.935C167.05 108.935 161.135 91.0841 163.55 79.9351C166.095 68.1819 180.05 53.9352 180.05 53.9352C180.05 53.9352 177.77 43.1704 180.05 36.9352C181.874 31.9464 188.05 25.9352 188.05 25.9352C188.05 25.9352 185.55 4.43485 200.55 1.43517C215.55 -1.56451 220.05 11.9352 220.05 11.9352C255.51 22.2749 269.016 34.6131 264.05 86.4351C264.05 86.4351 291.802 134.384 248.55 152.935" stroke="black" stroke-width="2"/>
<path d="M167.55 107.935C164.05 122.435 246.195 140.058 249.05 151.935" stroke="black" stroke-width="2"/>
<path d="M255.971 76.5002C241.794 85.1797 225.471 67.5002 225.471 67.5002C225.471 67.5002 215.216 45.472 204.471 48.0002C194.806 48.0002 186.971 37.2551 186.971 24.0002C186.971 10.7454 194.806 0.000244141 204.471 0.000244141C207.53 0.000244141 215.971 3.00024 223.971 13.0002C245.471 19.5002 279.971 39.5002 255.971 76.5002Z" fill="black"/>
<path d="M196.471 43.0002C196.471 51.5607 194.971 36.5002 187.971 60.0002C182.448 60.0002 177.971 53.0607 177.971 44.5002C177.971 35.9398 184.448 25.5002 189.971 25.5002C195.494 25.5002 196.471 34.4398 196.471 43.0002Z" fill="black"/>
<path d="M183.471 83.0002C180.892 107.5 219.039 123.5 202.471 123.5C185.902 123.5 161.845 124.829 163.971 85.5002C164.971 67.0002 180.471 51.5002 192.971 48.0002C190.971 59.0002 185.471 64.0002 183.471 83.0002Z" fill="black"/>
<path d="M272.971 123.501C268.971 130.501 267.971 160.001 230.471 140.001C174.471 120.5 186.471 120.837 186.471 112C203.471 101.5 189.471 134 242.971 96.5002C244.63 95.3936 243.734 97.8943 245.971 98.0002C247.203 98.0586 249.386 100.216 253.471 94.0001C264.971 76.5002 270.723 91.5842 272.971 123.501Z" fill="black"/>
<path d="M245.221 143.708C255.621 143.141 258.221 143.471 258.221 143.708L253.887 147.604L249.554 151.5C247.628 148.667 244.354 139.174 246.665 143.708" stroke="black" stroke-width="6"/>
<path d="M259.471 60.5002C261.471 82.1002 261.971 87.5002 261.971 87.5002L261.471 56.5002L257.471 75.5002L256.471 76.5002" stroke="black" stroke-width="6"/>
<path d="M232.471 228C245.531 228.755 250.992 230.025 252.971 231" stroke="black" stroke-width="2"/>
<path d="M212.471 228.5C214.825 244.841 214.275 249.693 210.971 253" stroke="black" stroke-width="2"/>
<path d="M198.971 225C203.401 226.335 208.888 227.036 212.471 228.115M212.471 228.115C235.738 235.123 241.971 237 241.971 237L212.471 228.115Z" stroke="black" stroke-width="2"/>
<path d="M220.971 201.5C233.971 202.501 214.971 210 216.471 212.5C217.971 215.001 220.471 214.001 220.471 212" stroke="black"/>
<path d="M185.471 206C173.071 206.4 170.471 203 170.971 205.5C171.471 208 190.548 214.276 187.971 216C185.394 217.725 166.471 212.5 167.471 214.5C168.471 216.5 178.678 220.43 187.471 223.5" stroke="black" stroke-width="2"/>
<path d="M181.971 236.5L179.471 244.5L139.971 239C139.971 239 142.871 228.1 154.471 184.5L189.218 188.615M188.471 207L192.471 189L189.218 188.615M189.218 188.615L186.471 205.5C197.971 211 204.971 244.5 203.471 247C201.971 249.5 186.239 241.836 179.471 231C179.471 231 164.471 225.5 165.971 225.5C167.471 225.5 179.471 226.5 181.971 227.5C184.471 228.5 173.937 220.197 165.971 218.5" stroke="black" stroke-width="2"/>
<path d="M226.971 71.5002C228.447 77.6009 229.458 75.4477 229.971 72.5002" stroke="black" stroke-width="2"/>
<path d="M198.971 65.0002C200.447 71.1009 201.458 68.9477 201.971 66.0002" stroke="black" stroke-width="2"/>
<path d="M212.471 69.0002C210.471 79.0002 202.971 84.0002 204.971 86.5002C206.97 89.0002 209.471 86.5002 209.471 86.5002" stroke="black" stroke-width="2"/>
<path d="M195.471 122C191.399 126.429 203.017 164.052 223.471 131.5" stroke="black" stroke-width="2"/>
<path d="M189.971 121.5C189.696 147.62 189.563 160.275 189.506 165.634C189.496 166.629 190.786 167.027 191.338 166.199L204.321 146.725C204.785 146.028 205.849 146.177 206.105 146.974L213.755 170.774C214.025 171.612 215.166 171.719 215.586 170.945L233.471 138" stroke="black" stroke-width="2"/>
<path d="M6.4707 115C15.4707 107.5 26.9707 106.5 28.4707 106.5C29.9707 106.499 6.9707 121 9.9707 120.5C12.9707 120 28.7236 113.632 41.9707 110" stroke="black" stroke-width="2"/>
<path d="M300.971 249C250.766 159.417 244.471 145.5 230.471 134.5C216.471 123.5 129.471 107.5 129.471 107.5L60.9131 89.8711C59.9542 89.6246 59.0242 89.277 58.1386 88.8342L32.4707 76.0002" stroke="black" stroke-width="2"/>
<path d="M27.9707 74.0002C28.2345 80.5366 36.6425 85.8241 40.4707 87.5002C21.9987 86.4098 4.96561 94.8934 2.9707 96.0002C0.975801 97.1071 26.5219 94.0346 25.9707 95.0002C15.6481 98.3926 0.470703 106.5 0.470703 106.5M27.9707 99.5002C13.6493 104.193 6.0901 108.625 1.9707 112" stroke="black" stroke-width="2"/>
<path d="M51.9707 87.0002C47.843 96.0693 46.3018 103.723 45.4707 112.5C48.3996 113.281 49.4706 113.5 52.9707 114.5M60.4706 90.5002C56.4706 112.1 55.4706 117.5 55.4706 117.5C99.4826 131.335 124.307 141.393 168.971 163.5L166.971 172.5" stroke="black" stroke-width="2"/>
<path d="M194.471 162.5C199.446 167.108 206.096 166.545 210.971 165" stroke="black" stroke-width="2"/>
<circle cx="198.471" cy="67.5002" r="11.5" stroke="black" stroke-width="2"/>
<circle cx="227.471" cy="72.5002" r="11.5" stroke="black" stroke-width="2"/>
<path d="M210.135 68.0133C212.658 67.4789 213.983 67.6635 216.135 69.0133" stroke="black" stroke-width="2"/>
<path d="M200.312 52.0604C205.032 50.2173 207.438 51.0464 211.312 56.0604" stroke="black" stroke-width="2"/>
<line x1="222.471" y1="92.0002" x2="222.471" y2="94.0002" stroke="black"/>
<line x1="195.471" y1="86.0002" x2="195.471" y2="88.0002" stroke="black"/>
<line x1="225.471" y1="88.0002" x2="225.471" y2="90.0002" stroke="black"/>
<line x1="198.471" y1="82.0002" x2="198.471" y2="84.0002" stroke="black"/>
<line x1="220.471" y1="87.0002" x2="220.471" y2="89.0002" stroke="black"/>
<line x1="193.471" y1="81.0002" x2="193.471" y2="83.0002" stroke="black"/>
<path d="M202.971 96.5002C205.625 99.8484 209.831 98.5753 212.471 97.0002" stroke="black" stroke-width="2"/>
<path d="M154.971 184C150.596 177.496 153.359 175.162 156.971 174.5" stroke="black" stroke-width="2"/>
<path d="M163.214 184.5C158.839 177.996 161.603 175.662 165.214 175" stroke="black" stroke-width="2"/>
<path d="M171.214 185.5C164.971 177 171.971 176 175.471 177" stroke="black" stroke-width="2"/>
<path d="M178.971 187C175.971 179 179.971 178.5 184.471 179" stroke="black" stroke-width="2"/>
<path d="M187.011 189.137C184.011 181.137 190.471 179 193.971 184" stroke="black" stroke-width="2"/>
<path d="M191.971 211C215.571 203.4 221.471 201.5 221.471 201.5L205.971 204.5" stroke="black" stroke-width="4"/>
</svg>
