<svg width="289" height="245" viewBox="0 0 289 245" fill="none" xmlns="http://www.w3.org/2000/svg">
<path d="M72.9022 82.8961C57.0616 58.1451 60.0483 54.9839 53.1015 51.9573C46.1547 48.9307 44.7648 67.7628 60.7439 57.6742C76.7229 47.5857 72.9022 26.0628 67.3441 31.7798C61.786 37.4969 63.8756 45.4456 65.6072 53.975C67.8012 64.782 80.5446 78.188 80.5446 78.188" stroke="black" stroke-width="2"/>
<path d="M175.033 63.7271L189.97 34.1335C207.223 38.6174 241.938 48.7958 242.772 53.6384" stroke="black"/>
<path d="M244.509 58.6829C263.649 76.8472 252.1 94.348 236.866 106.436L229.919 113.835C229.919 113.835 240.687 105.091 232.003 93.6571C223.318 82.2232 210.118 65.0724 210.118 65.0724C210.118 65.0724 205.98 70.2202 205.255 74.1522C203.825 81.9007 214.286 92.312 214.286 92.312L210.118 102.401C196.26 99.6623 191.058 101.806 187.538 113.835C197.973 111.921 203.831 112.454 214.286 115.516" stroke="black"/>
<path fill-rule="evenodd" clip-rule="evenodd" d="M185.802 34.7684C180.45 36.6792 174.729 44.621 176.14 48.1803C176.524 49.1495 175.523 56.5674 174.608 59.5234C174.329 60.4274 173.487 60.7004 170.98 60.7004C166.728 60.7004 163.266 62.5339 161.322 65.8148C159.313 69.2086 159.353 72.4457 161.449 75.9943L163.133 78.8454L161.482 81.7112C159.421 85.29 157.628 91.6836 154.876 105.262C153.016 114.438 152.849 116.102 153.633 117.68C154.88 120.192 158.454 122.363 164.049 124.009C169.181 125.517 169.772 126.461 167.973 130.281C167.34 131.628 166.662 131.994 164.802 131.994C161.051 131.994 159.923 132.984 158.643 137.399C157.998 139.625 157.224 141.594 156.922 141.774C156.622 141.954 154.776 141.492 152.821 140.746C147.485 138.709 138.26 137.373 129.609 137.385C119.859 137.397 114.238 138.647 106.078 142.614C105.791 142.753 105.557 141.34 105.557 139.473C105.557 135.509 104.712 133.308 96.8436 116.743C93.6115 109.939 90.9666 104.211 90.9666 104.015C90.9666 103.819 91.949 102.859 93.1502 101.88C96.3239 99.2945 98.5937 94.1345 98.602 89.4856C98.6076 86.2881 98.1351 84.7795 95.7625 80.4172C94.1965 77.5392 92.3179 74.372 91.587 73.3786L90.2586 71.5721L85.4016 74.294C82.7309 75.7912 80.5452 77.2796 80.5452 77.6017C80.5452 77.9239 79.9984 78.1889 79.3293 78.1903C78.6603 78.1916 77.0192 78.8413 75.6818 79.6343C74.3444 80.4273 72.3122 81.5908 71.1659 82.219C70.0195 82.8472 67.2842 84.3451 65.0867 85.547C62.8899 86.7489 61.0918 87.9044 61.0918 88.1149C61.0918 88.3254 62.5731 91.052 64.3836 94.1748C67.4614 99.4822 69.6687 101.974 73.4579 104.418C74.7578 105.257 75.1948 106.552 76.0466 112.094C76.61 115.761 77.0714 119.015 77.0714 119.325C77.0714 119.993 67.6386 120.065 60.1671 119.454C54.8883 119.022 54.8626 119.01 54.534 116.932C53.198 108.484 51.8022 101.53 50.8302 98.4807C49.5956 94.6087 46.4574 91.3191 43.2552 90.5409C40.1107 89.7768 39.2444 90.9303 38.8421 96.4165C38.5329 100.642 38.387 101.088 37.8771 99.3739C35.6552 91.9116 30.4945 84.5562 26.3003 82.8741C24.4772 82.143 24.0152 82.1814 23.0196 83.1452C21.6481 84.4728 21.5849 89.9705 22.8716 95.972C23.3253 98.0866 23.5386 99.9691 23.3461 100.155C23.1537 100.342 21.0166 99.0154 18.5961 97.2082C11.9562 92.2506 10.7362 91.6533 6.3891 91.235C3.48499 90.9552 2.02252 91.1139 1.06653 91.8121C-1.79381 93.9011 -0.647448 95.3505 27.0006 124.596C35.2189 133.289 44.0229 142.52 46.5651 145.109C53.3112 151.981 55.5344 154.588 55.5296 155.623C55.5275 156.129 53.0555 168.498 50.0354 183.11C44.8678 208.116 44.1939 210.683 38.576 226.778C35.2926 236.184 32.6066 244.129 32.6066 244.434C32.6066 244.738 46.3768 244.988 63.2074 244.988H93.8089L93.4372 242.802C93.2329 241.599 92.5902 236.227 92.0087 230.864C91.4272 225.5 90.7846 220.127 90.5803 218.925C90.2989 217.271 90.4622 216.739 91.2507 216.739C92.47 216.739 92.6646 217.683 94.093 230.527C94.669 235.706 95.3234 241.082 95.5471 242.472L95.9543 245L131.441 244.826L166.928 244.652L174.859 221.616C180.304 205.803 183.1 198.58 183.775 198.58C184.317 198.58 184.759 198.812 184.759 199.096C184.759 199.379 181.32 209.589 177.117 221.784C172.914 233.978 169.475 244.188 169.475 244.472C169.475 244.756 181.494 244.988 196.185 244.988H222.895L222.951 224.681C222.982 213.512 223.135 204.25 223.291 204.1C223.446 203.949 223.907 204.025 224.314 204.269C224.812 204.567 225.056 211.313 225.056 224.85V244.988H257.028H289L288.642 243.475C286.616 234.906 279.306 207.399 276.801 198.916C272.871 185.61 270.583 180.755 266.062 176.127C261.191 171.142 255.939 168.605 246.454 166.658C233.153 163.928 228.556 162.847 228.256 162.376C228.098 162.128 228.25 158.141 228.593 153.517C228.937 148.893 229.656 138.126 230.191 129.591L231.163 114.072L233.32 111.786C234.506 110.528 235.477 109.136 235.477 108.692C235.477 108.249 237.185 106.473 239.272 104.746C243.931 100.893 250.181 93.092 252.106 88.7269C256.474 78.8238 254.562 68.6921 246.928 61.2863C244.87 59.29 243.816 57.618 243.532 55.9016C243.225 54.0405 242.548 53.0693 240.847 52.0524C239.597 51.3045 228.889 47.0188 217.051 42.5293C194.203 33.8644 190.741 33.0042 185.802 34.7684ZM190.686 53.1339C193.945 57.1095 201.835 64.4891 204.386 65.9499C206.466 67.1404 206.559 67.3307 205.7 68.6423C205.242 69.3398 204.608 69.2274 202.634 68.0995C198.824 65.9244 190.317 66.1874 190.317 68.4802C190.317 69.0102 190.709 69.446 191.186 69.448C191.664 69.4507 191.117 69.9256 189.971 70.5033C188.826 71.0817 187.349 72.0281 186.689 72.6058C185.601 73.5595 185.328 73.5541 183.735 72.5439C182.77 71.9319 181.98 71.2237 181.98 70.9701C181.98 70.7165 183.111 69.3889 184.492 68.0195C185.936 66.5882 186.792 65.1993 186.507 64.7527C186.152 64.1972 185.636 64.3041 184.697 65.1267C183.446 66.2223 183.313 66.1921 181.937 64.4985C181.141 63.5192 180.044 62.7182 179.498 62.7182C178.953 62.7182 178.507 62.4081 178.507 62.0288C178.507 61.2197 186.985 50.0091 187.629 49.9674C187.869 49.9519 189.245 51.3771 190.686 53.1339ZM176.061 64.9041C180.12 68.606 179.977 69.937 174.965 75.1233C170.233 80.021 169.279 80.2537 165.266 77.4874C158.804 73.0329 162.471 62.7182 170.517 62.7182C173.112 62.7182 174.084 63.1016 176.061 64.9041ZM225.251 85.8563L230.102 91.9755L229.664 104.418C229.266 115.729 227.776 139.343 224.615 184.455C223.98 193.519 223.239 201.178 222.968 201.477C222.595 201.887 186.365 197.497 185.658 196.955C185.579 196.894 186.289 194.436 187.236 191.491C188.182 188.546 190.554 180.992 192.508 174.703C194.462 168.414 196.176 162.966 196.317 162.597C196.457 162.227 195.653 161.42 194.531 160.802C190.568 158.626 188.153 151.096 188.345 141.524C188.495 134.101 189.478 133.573 197.96 136.366C203.974 138.346 203.518 138.287 203.518 137.094C203.518 136.098 194.018 132.667 191.26 132.667C188.523 132.667 186.672 134.806 186.717 137.918C186.75 140.284 186.537 140.738 185.394 140.738C181.275 140.738 181.959 128.631 186.222 126.053C188.629 124.598 197.348 125.017 205.433 126.977C212.278 128.637 214.333 128.731 212.851 127.318C212.494 126.978 209.545 126.001 206.297 125.149C201.779 123.961 198.555 123.596 192.575 123.592L184.759 123.587V121.693C184.759 118.879 185.868 117.363 189.086 115.774C192.779 113.95 201.534 113.838 209.321 115.515C213.224 116.356 214.959 116.479 215.502 115.954C216.339 115.143 216.075 115.007 211.508 113.898C205.556 112.454 197.357 111.846 193.389 112.556C191.243 112.94 189.312 113.085 189.099 112.879C188.446 112.246 191.067 107.309 193.006 105.519C196.779 102.035 201.823 101.544 211.29 103.741C214.467 104.478 217.639 105.083 218.339 105.086C220.632 105.095 219.113 103.462 216.32 102.916C211.775 102.027 211.863 102.138 212.952 98.6361C214.579 93.4054 214.229 91.5249 210.317 84.4358C206.238 77.0462 205.675 73.234 207.98 68.6019L209.235 66.0791L214.818 72.9078C217.888 76.6635 222.582 82.4901 225.251 85.8563ZM173.782 68.9059C172.393 70.2511 172.746 72.8069 174.322 72.8069C175.865 72.8069 178.174 69.8819 177.483 68.801C176.879 67.8534 174.808 67.9125 173.782 68.9059ZM202.302 70.2558C203.353 70.9694 204.213 71.8559 204.213 72.2258C204.213 72.5957 203.225 72.2177 202.019 71.3857C200.619 70.4206 198.418 69.7534 195.939 69.5415C192.873 69.2799 192.421 69.107 193.791 68.723C196.233 68.039 200.051 68.7264 202.302 70.2558ZM199.937 72.5271C204.672 75.2639 206.299 81.4113 203.392 85.586C199.14 91.693 190.723 91.5894 186.813 85.3815C184.159 81.1678 185.84 74.7836 190.207 72.4868C192.676 71.1887 197.657 71.2095 199.937 72.5271ZM221.389 72.8069C221.478 72.8069 221.181 73.5958 220.727 74.5603L219.902 76.3131L218.314 74.3922C216.189 71.8223 216.303 71.4402 218.972 72.1814C220.211 72.5251 221.299 72.8069 221.389 72.8069ZM183.676 77.8829C182.996 82.2748 183.844 85.3459 186.535 88.2285C191.494 93.5426 199.096 93.4074 204.09 87.9158C207.026 84.6861 207.76 84.8085 210.375 88.961C212.067 91.648 212.167 92.9185 211.053 97.5909L210.251 100.954L204.18 100.574C198.861 100.24 197.719 100.375 194.963 101.667C191.13 103.463 188.728 106.385 187.122 111.203C186.454 113.205 185.147 115.822 184.217 117.018C182.898 118.716 182.588 119.805 182.802 121.978L183.075 124.763L178.263 124.329C166.959 123.312 157.273 120.26 155.568 117.177C154.983 116.118 155.384 113.056 157.354 103.567C161.4 84.0666 163.225 79.674 166.907 80.5692C168.983 81.0729 169.177 81.6251 167.949 83.5292C166.995 85.0082 168.33 87.9481 171.823 92.0649C175.174 96.0143 175.457 93.6785 172.184 89.0868C168.776 84.306 168.633 84.789 175.696 77.3563L180.002 72.8251L182.07 73.8608C184.026 74.8395 184.113 75.0594 183.676 77.8829ZM195.395 76.0272C194.096 76.8269 192.472 80.2719 192.893 81.3346C193.486 82.8297 196.613 82.1047 198.138 80.1179C200.372 77.2076 198.358 74.2039 195.395 76.0272ZM29.146 87.4867C31.8688 90.2207 32.8887 92.0744 35.6184 99.2515L38.8595 107.771V118.537C38.8595 128.378 39.2638 130.719 40.6012 128.623C40.8402 128.249 41.0223 119.926 41.0056 110.127C40.9757 92.5297 40.9931 92.3118 42.4187 92.3118C44.5107 92.3118 48.3416 96.3325 49.2045 99.4351C50.2695 103.264 52.7547 117.643 52.7547 119.976C52.7547 123.585 54.8348 126.901 60.2956 131.994C66.2817 137.579 72.2455 144.897 74.0679 148.895C75.4116 151.843 76.3766 152.265 76.3766 149.904C76.3766 147.179 69.6805 138.215 62.4494 131.258C58.6456 127.599 55.5337 124.325 55.5337 123.983C55.5337 123.641 55.3246 122.833 55.069 122.188C54.634 121.092 55.3962 121.042 66.8799 121.424L79.1556 121.833V119.974C79.1556 118.953 78.8694 116.472 78.5192 114.463C78.1691 112.452 77.7286 109.725 77.5403 108.402L77.1978 105.996L80.7821 106.042C82.7531 106.067 85.4606 105.846 86.798 105.55L89.2297 105.011L93.021 112.954C102.64 133.109 103.46 135.292 103.462 140.738C103.463 148.707 100.162 160.242 93.9339 174.03C91.5196 179.375 91.4946 179.533 90.1287 197.907C89.3728 208.08 88.4842 217.07 88.1535 217.884C86.5361 221.872 75.9681 223.307 66.0636 220.882C58.6685 219.071 46.5018 213.58 46.5018 212.052C46.5018 210.916 57.4172 156.499 57.9202 155.125C58.071 154.715 55.0161 151.068 51.1317 147.02C16.0032 110.412 2.03711 95.2873 2.03711 93.8507C2.03711 93.2628 3.12024 92.9844 5.40323 92.9844C9.11812 92.9844 13.1109 95.146 21.1222 101.494L25.2692 104.781L26.9943 111.661C28.0802 115.995 29.0529 118.542 29.6205 118.542C30.8815 118.542 30.876 118.508 27.4376 105.232C21.9538 84.0538 22.2866 80.5968 29.146 87.4867ZM235.132 100.396C235.69 102.85 234.454 107.23 232.64 109.231L231.21 110.808L231.602 106.1C231.817 103.51 231.996 100.21 231.998 98.7652C232.003 96.2067 232.038 96.1697 233.353 97.3218C234.096 97.9722 234.897 99.3557 235.132 100.396ZM169.243 98.8136C168.226 99.7976 168.936 100.375 172.38 101.365C177.227 102.759 184.759 102.775 184.759 101.392C184.759 100.597 183.762 100.377 180.07 100.353C177.491 100.337 174.13 99.8877 172.601 99.3544C171.073 98.8217 169.796 98.3805 169.764 98.3751C169.732 98.3697 169.498 98.5668 169.243 98.8136ZM178.331 126.365L182.528 126.79L181.487 129.202C180.446 131.613 180.509 137.735 181.599 140.204C182.176 141.51 181.457 141.369 173.936 138.692C167.22 136.303 167.044 136.081 169.108 132.585C170.065 130.965 170.851 128.807 170.856 127.79C170.866 125.706 171.194 125.644 178.331 126.365Z" fill="black"/>
<path d="M90.2725 72.4714C85.4091 6.2218 75.3357 -11.6011 36.7759 9.24868C5.35085 26.2406 16.5843 47.7913 42.3334 71.6747C48.1796 77.0973 54.774 82.6401 61.7873 88.277" stroke="black" stroke-width="2"/>
</svg>
